<svg width="24" height="24" viewBox="0 0 24 24" fill="none" xmlns="http://www.w3.org/2000/svg">
<g id="GitHub">
<path id="Vector" d="M12 2.40002C6.6984 2.40002 2.4 6.69842 2.4 12C2.4 16.4984 5.4976 20.2624 9.6736 21.304C9.6288 21.1744 9.6 21.024 9.6 20.8376V19.1968C9.2104 19.1968 8.5576 19.1968 8.3936 19.1968C7.7368 19.1968 7.1528 18.9144 6.8696 18.3896C6.5552 17.8064 6.5008 16.9144 5.7216 16.3688C5.4904 16.1872 5.6664 15.98 5.9328 16.008C6.4248 16.1472 6.8328 16.4848 7.2168 16.9856C7.5992 17.4872 7.7792 17.6008 8.4936 17.6008C8.84 17.6008 9.3584 17.5808 9.8464 17.504C10.1088 16.8376 10.5624 16.224 11.1168 15.9344C7.92 15.6056 6.3944 14.0152 6.3944 11.856C6.3944 10.9264 6.7904 10.0272 7.4632 9.26962C7.2424 8.51762 6.9648 6.98402 7.548 6.40002C8.9864 6.40002 9.856 7.33282 10.0648 7.58482C10.7816 7.33922 11.5688 7.20002 12.396 7.20002C13.2248 7.20002 14.0152 7.33922 14.7336 7.58642C14.94 7.33602 15.8104 6.40002 17.252 6.40002C17.8376 6.98482 17.5568 8.52482 17.3336 9.27522C18.0024 10.0312 18.396 10.928 18.396 11.856C18.396 14.0136 16.8728 15.6032 13.6808 15.9336C14.5592 16.392 15.2 17.68 15.2 18.6504V20.8376C15.2 20.9208 15.1816 20.9808 15.172 21.052C18.9128 19.7408 21.6 16.1888 21.6 12C21.6 6.69842 17.3016 2.40002 12 2.40002Z" fill="white"/>
</g>
</svg>
