<svg width="24" height="24" viewBox="0 0 24 24" fill="none" xmlns="http://www.w3.org/2000/svg">
<g id="LinkedIn">
<path id="Vector" d="M19.2 3.20001H4.8C3.916 3.20001 3.2 3.91601 3.2 4.80001V19.2C3.2 20.084 3.916 20.8 4.8 20.8H19.2C20.084 20.8 20.8 20.084 20.8 19.2V4.80001C20.8 3.91601 20.084 3.20001 19.2 3.20001ZM8.7632 17.6H6.4032V10.0064H8.7632V17.6ZM7.5592 8.92081C6.7984 8.92081 6.1832 8.30401 6.1832 7.54481C6.1832 6.78561 6.7992 6.16961 7.5592 6.16961C8.3176 6.16961 8.9344 6.78641 8.9344 7.54481C8.9344 8.30401 8.3176 8.92081 7.5592 8.92081ZM17.6032 17.6H15.2448V13.9072C15.2448 13.0264 15.2288 11.8936 14.0184 11.8936C12.7904 11.8936 12.6016 12.8528 12.6016 13.8432V17.6H10.2432V10.0064H12.5072V11.044H12.5392C12.8544 10.4472 13.624 9.81761 14.772 9.81761C17.1616 9.81761 17.6032 11.3904 17.6032 13.4352V17.6Z" fill="white"/>
</g>
</svg>
