<svg width="24" height="24" viewBox="0 0 24 24" fill="none" xmlns="http://www.w3.org/2000/svg">
<g id="Google Play">
<path id="Vector" d="M6.09844 2.56873L14.4 10.8687L16.5422 8.72654C13.615 6.95054 9.69445 4.56805 7.93125 3.49685L6.75 2.78123C6.5412 2.65403 6.31764 2.58553 6.09844 2.56873ZM4.83125 3.56248C4.81445 3.65368 4.8 3.74533 4.8 3.84373V20.2468C4.8 20.3156 4.81384 20.3797 4.82344 20.4453L13.2687 12L4.83125 3.56248ZM17.95 9.58122L15.5312 12L17.9078 14.3765C19.167 13.6133 20.0391 13.0834 20.1359 13.025C20.5639 12.7634 20.8056 12.3687 20.7984 11.9375C20.792 11.5143 20.5503 11.1359 20.1391 10.9031C20.0471 10.8503 19.1868 10.3308 17.95 9.58122ZM14.4 13.1312L6.12344 21.4078C6.28424 21.3798 6.44484 21.3318 6.59844 21.239C6.81124 21.1094 12.56 17.6216 16.5 15.2312L14.4 13.1312Z" fill="white"/>
</g>
</svg>
