<svg width="24" height="24" viewBox="0 0 24 24" fill="none" xmlns="http://www.w3.org/2000/svg">
<g id="Telegram App">
<path id="Vector" d="M20.1234 3.18749C19.8634 3.19896 19.6211 3.27471 19.4078 3.36093C19.208 3.4413 18.4446 3.76872 17.2422 4.28436C16.0387 4.80046 14.4452 5.48461 12.7453 6.21561C9.34557 7.67762 5.52337 9.32332 3.56563 10.1656C3.49201 10.1973 3.23514 10.2793 2.9625 10.4922C2.68986 10.705 2.4 11.1461 2.4 11.6375C2.4 12.0338 2.58886 12.4274 2.82656 12.6625C3.06427 12.8975 3.3158 13.0136 3.53125 13.1016C4.31298 13.4205 6.73748 14.4127 7.19531 14.6C7.35644 15.0936 8.23399 17.778 8.4375 18.4359C8.57166 18.8701 8.69936 19.142 8.86563 19.3578C8.94876 19.4657 9.0454 19.5603 9.1625 19.6344C9.20931 19.664 9.26063 19.6868 9.3125 19.7078L9.31563 19.7094C9.32758 19.7142 9.33788 19.7223 9.35 19.7266C9.37287 19.7346 9.38816 19.7355 9.41875 19.7422C9.54061 19.7815 9.66364 19.8062 9.77344 19.8062C10.2416 19.8062 10.5281 19.5484 10.5281 19.5484L10.5453 19.5359L12.9531 17.4531L15.8734 20.2156C15.9146 20.2738 16.298 20.8 17.1438 20.8C17.6459 20.8 18.0443 20.548 18.3 20.2797C18.5557 20.0113 18.7151 19.7294 18.7828 19.375V19.3734C18.8462 19.0385 21.5375 5.22186 21.5375 5.22186L21.5328 5.24061C21.6116 4.881 21.6322 4.5461 21.5453 4.21561C21.4584 3.88513 21.2293 3.5687 20.9453 3.39843C20.6613 3.22819 20.3835 3.17601 20.1234 3.18749ZM19.9734 4.85936C19.9696 4.88271 19.9763 4.87097 19.9703 4.89842L19.9688 4.9078L19.9672 4.91717C19.9672 4.91717 17.3092 18.5571 17.2109 19.0766C17.2181 19.0373 17.1853 19.1153 17.1516 19.1625C17.1039 19.1297 17.0063 19.0875 17.0063 19.0875L16.9906 19.0703L13.0016 15.2969L10.1813 17.7344L11.0203 14.375C11.0203 14.375 16.2653 8.94567 16.5813 8.62967C16.8357 8.37687 16.8891 8.28875 16.8891 8.20155C16.8891 8.08475 16.8282 7.99999 16.6922 7.99999C16.5698 7.99999 16.4052 8.11899 16.3172 8.17499C15.1707 8.90582 10.1375 11.8393 7.88125 13.1516C7.5227 13.0048 5.03173 11.9852 4.1875 11.6406C4.19389 11.6378 4.19179 11.6388 4.19844 11.6359C6.1567 10.7934 9.97731 9.14772 13.3766 7.68593C15.0762 6.95503 16.6709 6.27035 17.8734 5.75467C19.0574 5.24694 19.8801 4.8975 19.9734 4.85936Z" fill="white"/>
</g>
</svg>
